<svg xmlns="http://www.w3.org/2000/svg" viewBox="0 0 297.36 356.86"><defs><style>.cls-1{fill:#fff;fill-rule:evenodd;}</style></defs><g id="Layer_2" data-name="Layer 2"><g id="Layer_1-2" data-name="Layer 1"><path class="cls-1" d="M111.55,116.19c-36,85,75.21,99.56,55.4,174.15C202.63,211,93.22,190.86,111.55,116.19Z"/><path class="cls-1" d="M96.74,231.76q63.14,59.51,49.44,125.1C200.47,238.85,44,198.05,72.44,114c20.06-49.27,96.32-29.91,90.42,23,20-57.64-53.31-105.79-98.18-65.57C6,122.76,45.86,193.11,96.74,231.76Z"/><path class="cls-1" d="M116.49,23.93C117-8,164.48-8,165,23.93,164.48,55.83,117,55.82,116.49,23.93Z"/><path class="cls-1" d="M73.37,33.23c.09-20.77,31.68-20.77,31.77,0C105,54,73.46,54,73.37,33.23Z"/><path class="cls-1" d="M35.57,50.05c.09-19.63,29.93-19.63,30,0C65.5,69.67,35.66,69.67,35.57,50.05Z"/><path class="cls-1" d="M9.73,78c.07-16.9,25.77-16.89,25.84,0S9.8,94.88,9.73,78Z"/><path class="cls-1" d="M0,114.66c.07-15.45,23.55-15.45,23.62,0S.07,130.1,0,114.66Z"/><path class="cls-1" d="M210.22,154.3c28.12,66.41-58.75,77.77-43.27,136C139.08,228.37,224.54,212.62,210.22,154.3Z"/><path class="cls-1" d="M222.9,245.14q-49.32,46.5-38.62,97.73c-42.42-92.19,79.82-124.06,57.6-189.73-15.67-38.49-75.24-23.37-70.63,17.94-15.65-45,41.64-82.64,76.7-51.22C293.78,160,262.64,215,222.9,245.14Z"/><path class="cls-1" d="M206.37,82.22c-.43-24.93-37.5-24.92-37.92,0C168.87,107.14,206,107.14,206.37,82.22Z"/><path class="cls-1" d="M240.05,89.49c-.07-16.23-24.75-16.23-24.82,0S240,105.72,240.05,89.49Z"/><path class="cls-1" d="M269.58,102.62c-.07-15.33-23.38-15.33-23.45,0S269.51,118,269.58,102.62Z"/><path class="cls-1" d="M289.77,124.44c.19-13.1-20.39-13.1-20.19,0C269.39,137.54,290,137.54,289.77,124.44Z"/><path class="cls-1" d="M297.36,153.1c.18-12-18.63-12-18.45,0C278.73,165.06,297.54,165.07,297.36,153.1Z"/></g></g></svg>